{
	"asset":{
		"version":"2.0",
		"generator":"Created using the official Cinema 4D glTF Exporter 1.000x284978"
	},
	"nodes":[{
		"name":"Cylinder.1",
		"mesh":0,
		"scale":[1.0,
		1.0,
		1.0],
		"translation":[61.625362396240237,
		115.3993911743164,
		-30.569189071655275],
		"rotation":[0.08402228355407715,
		0.055285386741161349,
		0.3365584909915924,
		0.9362756609916687]
	}],
	"scenes":[{
		"nodes":[0]
	}],
	"meshes":[{
		"name":"Cylinder.1",
		"primitives":[{
			"attributes":{
				"POSITION":1,
				"NORMAL":2,
				"TEXCOORD_0":3
			},
			"indices":0,
			"material":0
		}]
	}],
	"accessors":[{
		"bufferView":0,
		"count":1326,
		"componentType":5123,
		"type":"SCALAR",
		"byteOffset":0,
		"min":[0],
		"max":[495]
	},
	{
		"bufferView":1,
		"count":496,
		"componentType":5126,
		"type":"VEC3",
		"byteOffset":0,
		"min":[-112.69554138183594,
		-95.04666137695313,
		-90.00733947753906],
		"max":[157.30445861816407,
		240.04666137695313,
		180.00733947753907]
	},
	{
		"bufferView":1,
		"count":496,
		"componentType":5126,
		"type":"VEC3",
		"byteOffset":12,
		"min":[-0.7999082207679749,
		-0.7388064861297607,
		-1.0],
		"max":[0.7071068286895752,
		1.0,
		0.9999815225601196]
	},
	{
		"bufferView":1,
		"count":496,
		"componentType":5126,
		"type":"VEC2",
		"byteOffset":24,
		"min":[-2457.94580078125,
		0.0],
		"max":[1.0,
		7671.3876953125]
	}],
	"materials":[{
		"emissiveFactor":[0.0,
		0.0,
		0.0],
		"pbrMetallicRoughness":{
			"baseColorFactor":[0.19,
			0.19,
			0.19,
			1.0],
			"metallicFactor":0.0,
			"roughnessFactor":0.5
		},
		"alphaMode":"OPAQUE",
		"doubleSided":false,
		"name":"Mat"
	}],
	"bufferViews":[{
		"buffer":0,
		"byteOffset":0,
		"byteLength":2652,
		"target":34963
	},
	{
		"buffer":0,
		"byteOffset":2652,
		"byteLength":15872,
		"target":34962,
		"byteStride":32
	}],
	"buffers":[{
		"uri":"data:application/octet-stream;base64,",
		"byteLength":18524
	}]
}